<mxfile host="app.diagrams.net" modified="2020-08-19T10:36:22.303Z" agent="5.0 (X11; Linux x86_64) AppleWebKit/537.36 (KHTML, like Gecko) Chrome/84.0.4147.125 Safari/537.36" etag="Aea8pM0QBrnAKZyIeud-" version="13.6.3" type="github" pages="2">
  <diagram id="73uf103xbZS4AoFQ2aT_" name="Understanding-what-you-know">
    <mxGraphModel dx="1720" dy="894" grid="0" gridSize="10" guides="1" tooltips="1" connect="1" arrows="1" fold="1" page="0" pageScale="1" pageWidth="850" pageHeight="1100" math="0" shadow="0">
      <root>
        <mxCell id="YAlLcn3y9I94ai_PhhZ3-0" />
        <mxCell id="YAlLcn3y9I94ai_PhhZ3-1" parent="YAlLcn3y9I94ai_PhhZ3-0" />
        <mxCell id="WRJqG0-N3v8RGOx6A3Xq-1" value="How do computers work?" style="rounded=0;whiteSpace=wrap;html=1;fontSize=25;fillColor=#dae8fc;strokeColor=#6c8ebf;" parent="YAlLcn3y9I94ai_PhhZ3-1" vertex="1">
          <mxGeometry x="131" y="500" width="260" height="82" as="geometry" />
        </mxCell>
        <mxCell id="WRJqG0-N3v8RGOx6A3Xq-4" value="Write a function to separate digits of a given number&amp;nbsp;&amp;nbsp;" style="rounded=0;whiteSpace=wrap;html=1;fontSize=25;fillColor=#dae8fc;strokeColor=#6c8ebf;" parent="YAlLcn3y9I94ai_PhhZ3-1" vertex="1">
          <mxGeometry x="13.5" y="1000" width="491" height="97" as="geometry" />
        </mxCell>
        <mxCell id="WRJqG0-N3v8RGOx6A3Xq-5" value="both are on same ground" style="rounded=0;whiteSpace=wrap;html=1;sketch=0;fontSize=25;fillColor=#f8cecc;strokeColor=#b85450;" parent="YAlLcn3y9I94ai_PhhZ3-1" vertex="1">
          <mxGeometry x="-88" y="169" width="172" height="77" as="geometry" />
        </mxCell>
        <mxCell id="WRJqG0-N3v8RGOx6A3Xq-7" value="&amp;nbsp;technical communication" style="rounded=0;whiteSpace=wrap;html=1;sketch=0;fontSize=25;fillColor=#f8cecc;strokeColor=#b85450;" parent="YAlLcn3y9I94ai_PhhZ3-1" vertex="1">
          <mxGeometry x="161.5" y="169" width="187" height="76" as="geometry" />
        </mxCell>
        <mxCell id="WRJqG0-N3v8RGOx6A3Xq-8" value="Dialogue" style="rounded=0;whiteSpace=wrap;html=1;sketch=0;fontSize=25;fillColor=#dae8fc;strokeColor=#6c8ebf;" parent="YAlLcn3y9I94ai_PhhZ3-1" vertex="1">
          <mxGeometry x="199" y="-187" width="120" height="60" as="geometry" />
        </mxCell>
        <mxCell id="WRJqG0-N3v8RGOx6A3Xq-9" value="best practice &amp;amp; shortcuts&amp;nbsp;" style="rounded=0;whiteSpace=wrap;html=1;sketch=0;fontSize=25;fillColor=#f8cecc;strokeColor=#b85450;" parent="YAlLcn3y9I94ai_PhhZ3-1" vertex="1">
          <mxGeometry x="448" y="170" width="211" height="75" as="geometry" />
        </mxCell>
      </root>
    </mxGraphModel>
  </diagram>
  <diagram id="44-_FOuu8udjPKSoRj1p" name="Introduction">
    <mxGraphModel dx="868" dy="494" grid="0" gridSize="10" guides="1" tooltips="1" connect="1" arrows="1" fold="1" page="0" pageScale="1" pageWidth="850" pageHeight="1100" background="none" math="0" shadow="0">
      <root>
        <mxCell id="0" />
        <mxCell id="1" parent="0" />
        <mxCell id="mohtnTfuxs3gzHKwS4Uj-4" value="" style="shape=image;verticalLabelPosition=bottom;labelBackgroundColor=#ffffff;verticalAlign=top;aspect=fixed;imageAspect=0;image=https://i.ytimg.com/vi/h-HBipu_1P0/maxresdefault.jpg;" vertex="1" parent="1">
          <mxGeometry x="148" y="97" width="823.49" height="464" as="geometry" />
        </mxCell>
      </root>
    </mxGraphModel>
  </diagram>
</mxfile>
